<svg width="540" height="540" viewBox="0 0 540 540" fill="none" xmlns="http://www.w3.org/2000/svg">
<rect width="540" height="540" rx="270" fill="url(#paint0_linear_170_59)"/>
<path d="M380.297 422.456C380.297 435.171 373.068 447.362 360.778 453.103C343.896 460.984 323.782 453.67 315.914 436.759L282.291 364.665C280.123 360.001 275.714 357.677 271.32 357.677C266.926 357.677 262.517 360.001 260.348 364.665L226.725 436.759C218.844 453.67 198.744 460.984 181.847 453.103C169.557 447.362 162.328 435.171 162.328 422.456C162.328 417.665 163.349 412.818 165.503 408.196L210.424 311.849C223.479 283.953 248.583 273.917 271.32 273.917C294.057 273.917 319.146 283.953 332.201 311.849L377.122 408.196C379.277 412.818 380.297 417.665 380.297 422.456Z" fill="url(#paint1_linear_170_59)"/>
<path d="M162.328 117C162.328 104.285 169.557 92.094 181.847 86.3532C198.73 78.4719 218.844 85.7862 226.711 102.697L260.334 174.791C262.503 179.455 266.911 181.779 271.306 181.779C275.7 181.779 280.108 179.455 282.277 174.791L315.9 102.697C323.782 85.7862 343.882 78.4719 360.778 86.3532C373.068 92.094 380.297 104.285 380.297 117C380.297 121.791 379.277 126.639 377.122 131.26L332.201 227.607C319.146 255.503 294.042 265.539 271.306 265.539C248.569 265.539 223.479 255.503 210.424 227.607L165.503 131.26C163.349 126.639 162.328 121.791 162.328 117Z" fill="url(#paint2_linear_170_59)"/>
<defs>
<linearGradient id="paint0_linear_170_59" x1="469.8" y1="28.5428" x2="-1.70297e-05" y2="499.886" gradientUnits="userSpaceOnUse">
<stop stop-color="#FAF9F6"/>
<stop offset="1" stop-color="#E1DDDD"/>
</linearGradient>
<linearGradient id="paint1_linear_170_59" x1="271.313" y1="273.917" x2="271.313" y2="456.274" gradientUnits="userSpaceOnUse">
<stop stop-color="#4E4B4B"/>
<stop offset="0.93" stop-color="#252323"/>
</linearGradient>
<linearGradient id="paint2_linear_170_59" x1="271.313" y1="83.182" x2="271.313" y2="265.539" gradientUnits="userSpaceOnUse">
<stop stop-color="#4E4B4B"/>
<stop offset="0.93" stop-color="#252323"/>
</linearGradient>
</defs>
</svg>
